<mxfile host="app.diagrams.net" modified="2024-06-01T14:37:53.617Z" agent="Mozilla/5.0 (Windows NT 10.0; Win64; x64) AppleWebKit/537.36 (KHTML, like Gecko) Chrome/125.0.0.0 Safari/537.36" etag="7vJClHQp0oOvk_2hjo5W" version="24.4.13" type="device">
  <diagram name="Page-1" id="QsvmSakm9-ihbVa6u0Fx">
    <mxGraphModel dx="1290" dy="557" grid="1" gridSize="10" guides="1" tooltips="1" connect="1" arrows="1" fold="1" page="1" pageScale="1" pageWidth="1100" pageHeight="850" math="0" shadow="0">
      <root>
        <mxCell id="0" />
        <mxCell id="1" parent="0" />
        <mxCell id="FF_aCATTHeJRvWMYEE-l-1" value="" style="rounded=0;whiteSpace=wrap;html=1;" vertex="1" parent="1">
          <mxGeometry x="370" y="20" width="520" height="1110" as="geometry" />
        </mxCell>
        <mxCell id="FF_aCATTHeJRvWMYEE-l-2" value="User" style="shape=umlActor;verticalLabelPosition=bottom;verticalAlign=top;html=1;outlineConnect=0;" vertex="1" parent="1">
          <mxGeometry x="230" y="80" width="30" height="60" as="geometry" />
        </mxCell>
        <mxCell id="FF_aCATTHeJRvWMYEE-l-3" value="Create organisation" style="ellipse;whiteSpace=wrap;html=1;" vertex="1" parent="1">
          <mxGeometry x="470" y="70" width="110" height="70" as="geometry" />
        </mxCell>
        <mxCell id="FF_aCATTHeJRvWMYEE-l-4" value="Invite Users to the organisation" style="ellipse;whiteSpace=wrap;html=1;" vertex="1" parent="1">
          <mxGeometry x="470" y="380" width="110" height="70" as="geometry" />
        </mxCell>
        <mxCell id="FF_aCATTHeJRvWMYEE-l-5" value="Connect Database" style="ellipse;whiteSpace=wrap;html=1;" vertex="1" parent="1">
          <mxGeometry x="470" y="280" width="110" height="70" as="geometry" />
        </mxCell>
        <mxCell id="FF_aCATTHeJRvWMYEE-l-6" value="" style="endArrow=none;html=1;rounded=0;entryX=0;entryY=0.5;entryDx=0;entryDy=0;exitX=1;exitY=0.3333333333333333;exitDx=0;exitDy=0;exitPerimeter=0;" edge="1" parent="1" source="FF_aCATTHeJRvWMYEE-l-2" target="FF_aCATTHeJRvWMYEE-l-3">
          <mxGeometry width="50" height="50" relative="1" as="geometry">
            <mxPoint x="280" y="180" as="sourcePoint" />
            <mxPoint x="570" y="280" as="targetPoint" />
          </mxGeometry>
        </mxCell>
        <mxCell id="FF_aCATTHeJRvWMYEE-l-9" value="Organisation manager" style="text;html=1;align=center;verticalAlign=middle;whiteSpace=wrap;rounded=0;" vertex="1" parent="1">
          <mxGeometry x="545" y="30" width="170" height="30" as="geometry" />
        </mxCell>
        <mxCell id="FF_aCATTHeJRvWMYEE-l-10" value="Manage User Roles" style="ellipse;whiteSpace=wrap;html=1;" vertex="1" parent="1">
          <mxGeometry x="470" y="610" width="110" height="70" as="geometry" />
        </mxCell>
        <mxCell id="FF_aCATTHeJRvWMYEE-l-26" value="Set User to as the organisation admin" style="ellipse;whiteSpace=wrap;html=1;" vertex="1" parent="1">
          <mxGeometry x="660" y="70" width="110" height="70" as="geometry" />
        </mxCell>
        <mxCell id="FF_aCATTHeJRvWMYEE-l-27" value="" style="endArrow=classic;html=1;rounded=0;entryX=0;entryY=0.5;entryDx=0;entryDy=0;exitX=1;exitY=0.5;exitDx=0;exitDy=0;dashed=1;" edge="1" parent="1" target="FF_aCATTHeJRvWMYEE-l-26" source="FF_aCATTHeJRvWMYEE-l-3">
          <mxGeometry width="50" height="50" relative="1" as="geometry">
            <mxPoint x="750" y="180" as="sourcePoint" />
            <mxPoint x="786" y="240" as="targetPoint" />
          </mxGeometry>
        </mxCell>
        <mxCell id="FF_aCATTHeJRvWMYEE-l-28" value="&amp;lt;&amp;lt;include&amp;gt;&amp;gt;" style="text;html=1;align=center;verticalAlign=middle;whiteSpace=wrap;rounded=0;" vertex="1" parent="1">
          <mxGeometry x="580" y="80" width="60" height="30" as="geometry" />
        </mxCell>
        <mxCell id="FF_aCATTHeJRvWMYEE-l-30" value="Organisation Admin" style="shape=umlActor;verticalLabelPosition=bottom;verticalAlign=top;html=1;outlineConnect=0;" vertex="1" parent="1">
          <mxGeometry x="230" y="500" width="30" height="60" as="geometry" />
        </mxCell>
        <mxCell id="FF_aCATTHeJRvWMYEE-l-31" value="" style="endArrow=none;html=1;rounded=0;entryX=0;entryY=0.5;entryDx=0;entryDy=0;exitX=1;exitY=0.3333333333333333;exitDx=0;exitDy=0;exitPerimeter=0;" edge="1" parent="1" source="FF_aCATTHeJRvWMYEE-l-30" target="FF_aCATTHeJRvWMYEE-l-5">
          <mxGeometry width="50" height="50" relative="1" as="geometry">
            <mxPoint x="270" y="110" as="sourcePoint" />
            <mxPoint x="480" y="115" as="targetPoint" />
          </mxGeometry>
        </mxCell>
        <mxCell id="FF_aCATTHeJRvWMYEE-l-32" value="Send an invitation email" style="ellipse;whiteSpace=wrap;html=1;" vertex="1" parent="1">
          <mxGeometry x="660" y="340" width="110" height="70" as="geometry" />
        </mxCell>
        <mxCell id="FF_aCATTHeJRvWMYEE-l-33" value="Send a registration email" style="ellipse;whiteSpace=wrap;html=1;" vertex="1" parent="1">
          <mxGeometry x="660" y="440" width="110" height="70" as="geometry" />
        </mxCell>
        <mxCell id="FF_aCATTHeJRvWMYEE-l-34" value="" style="endArrow=classic;html=1;rounded=0;entryX=0;entryY=0.5;entryDx=0;entryDy=0;exitX=1;exitY=0;exitDx=0;exitDy=0;dashed=1;" edge="1" parent="1" source="FF_aCATTHeJRvWMYEE-l-4" target="FF_aCATTHeJRvWMYEE-l-32">
          <mxGeometry width="50" height="50" relative="1" as="geometry">
            <mxPoint x="570" y="290" as="sourcePoint" />
            <mxPoint x="650" y="290" as="targetPoint" />
          </mxGeometry>
        </mxCell>
        <mxCell id="FF_aCATTHeJRvWMYEE-l-36" value="" style="endArrow=classic;html=1;rounded=0;entryX=0;entryY=0.5;entryDx=0;entryDy=0;exitX=1;exitY=1;exitDx=0;exitDy=0;dashed=1;" edge="1" parent="1" source="FF_aCATTHeJRvWMYEE-l-4" target="FF_aCATTHeJRvWMYEE-l-33">
          <mxGeometry width="50" height="50" relative="1" as="geometry">
            <mxPoint x="574" y="320" as="sourcePoint" />
            <mxPoint x="670" y="305" as="targetPoint" />
          </mxGeometry>
        </mxCell>
        <mxCell id="FF_aCATTHeJRvWMYEE-l-37" value="&amp;lt;&amp;lt;include&amp;gt;&amp;gt;" style="text;html=1;align=center;verticalAlign=middle;whiteSpace=wrap;rounded=0;" vertex="1" parent="1">
          <mxGeometry x="580" y="360" width="60" height="30" as="geometry" />
        </mxCell>
        <mxCell id="FF_aCATTHeJRvWMYEE-l-38" value="&amp;lt;&amp;lt;include&amp;gt;&amp;gt;" style="text;html=1;align=center;verticalAlign=middle;whiteSpace=wrap;rounded=0;" vertex="1" parent="1">
          <mxGeometry x="590" y="430" width="60" height="30" as="geometry" />
        </mxCell>
        <mxCell id="FF_aCATTHeJRvWMYEE-l-39" value="" style="endArrow=none;html=1;rounded=0;entryX=0;entryY=0.5;entryDx=0;entryDy=0;exitX=1;exitY=0.3333333333333333;exitDx=0;exitDy=0;exitPerimeter=0;" edge="1" parent="1" source="FF_aCATTHeJRvWMYEE-l-30" target="FF_aCATTHeJRvWMYEE-l-4">
          <mxGeometry width="50" height="50" relative="1" as="geometry">
            <mxPoint x="270" y="260" as="sourcePoint" />
            <mxPoint x="480" y="245" as="targetPoint" />
          </mxGeometry>
        </mxCell>
        <mxCell id="FF_aCATTHeJRvWMYEE-l-40" value="Accept organisation invite" style="ellipse;whiteSpace=wrap;html=1;" vertex="1" parent="1">
          <mxGeometry x="470" y="180" width="110" height="70" as="geometry" />
        </mxCell>
        <mxCell id="FF_aCATTHeJRvWMYEE-l-41" value="" style="endArrow=none;html=1;rounded=0;entryX=0;entryY=0.5;entryDx=0;entryDy=0;exitX=1;exitY=0.3333333333333333;exitDx=0;exitDy=0;exitPerimeter=0;" edge="1" parent="1" source="FF_aCATTHeJRvWMYEE-l-2" target="FF_aCATTHeJRvWMYEE-l-40">
          <mxGeometry width="50" height="50" relative="1" as="geometry">
            <mxPoint x="270" y="110" as="sourcePoint" />
            <mxPoint x="480" y="115" as="targetPoint" />
          </mxGeometry>
        </mxCell>
        <mxCell id="FF_aCATTHeJRvWMYEE-l-42" value="Define new User role" style="ellipse;whiteSpace=wrap;html=1;" vertex="1" parent="1">
          <mxGeometry x="660" y="520" width="110" height="70" as="geometry" />
        </mxCell>
        <mxCell id="FF_aCATTHeJRvWMYEE-l-43" value="Assign user roles" style="ellipse;whiteSpace=wrap;html=1;" vertex="1" parent="1">
          <mxGeometry x="660" y="610" width="110" height="70" as="geometry" />
        </mxCell>
        <mxCell id="FF_aCATTHeJRvWMYEE-l-44" value="Manage user roles permissions" style="ellipse;whiteSpace=wrap;html=1;" vertex="1" parent="1">
          <mxGeometry x="660" y="710" width="110" height="70" as="geometry" />
        </mxCell>
        <mxCell id="FF_aCATTHeJRvWMYEE-l-45" value="" style="endArrow=classic;html=1;rounded=0;entryX=0;entryY=0.5;entryDx=0;entryDy=0;exitX=1;exitY=0;exitDx=0;exitDy=0;dashed=1;" edge="1" parent="1" source="FF_aCATTHeJRvWMYEE-l-10" target="FF_aCATTHeJRvWMYEE-l-42">
          <mxGeometry width="50" height="50" relative="1" as="geometry">
            <mxPoint x="574" y="400" as="sourcePoint" />
            <mxPoint x="670" y="385" as="targetPoint" />
          </mxGeometry>
        </mxCell>
        <mxCell id="FF_aCATTHeJRvWMYEE-l-46" value="" style="endArrow=classic;html=1;rounded=0;entryX=0;entryY=0.5;entryDx=0;entryDy=0;exitX=1;exitY=0.5;exitDx=0;exitDy=0;dashed=1;" edge="1" parent="1" source="FF_aCATTHeJRvWMYEE-l-10" target="FF_aCATTHeJRvWMYEE-l-43">
          <mxGeometry width="50" height="50" relative="1" as="geometry">
            <mxPoint x="574" y="630" as="sourcePoint" />
            <mxPoint x="670" y="565" as="targetPoint" />
          </mxGeometry>
        </mxCell>
        <mxCell id="FF_aCATTHeJRvWMYEE-l-47" value="" style="endArrow=classic;html=1;rounded=0;entryX=0;entryY=0.5;entryDx=0;entryDy=0;exitX=1;exitY=1;exitDx=0;exitDy=0;dashed=1;" edge="1" parent="1" source="FF_aCATTHeJRvWMYEE-l-10" target="FF_aCATTHeJRvWMYEE-l-44">
          <mxGeometry width="50" height="50" relative="1" as="geometry">
            <mxPoint x="590" y="655" as="sourcePoint" />
            <mxPoint x="670" y="655" as="targetPoint" />
          </mxGeometry>
        </mxCell>
        <mxCell id="FF_aCATTHeJRvWMYEE-l-48" value="&amp;lt;&amp;lt;include&amp;gt;&amp;gt;" style="text;html=1;align=center;verticalAlign=middle;whiteSpace=wrap;rounded=0;" vertex="1" parent="1">
          <mxGeometry x="570" y="560" width="60" height="30" as="geometry" />
        </mxCell>
        <mxCell id="FF_aCATTHeJRvWMYEE-l-49" value="&amp;lt;&amp;lt;include&amp;gt;&amp;gt;" style="text;html=1;align=center;verticalAlign=middle;whiteSpace=wrap;rounded=0;" vertex="1" parent="1">
          <mxGeometry x="590" y="620" width="60" height="30" as="geometry" />
        </mxCell>
        <mxCell id="FF_aCATTHeJRvWMYEE-l-50" value="&amp;lt;&amp;lt;include&amp;gt;&amp;gt;" style="text;html=1;align=center;verticalAlign=middle;whiteSpace=wrap;rounded=0;" vertex="1" parent="1">
          <mxGeometry x="600" y="680" width="60" height="30" as="geometry" />
        </mxCell>
        <mxCell id="FF_aCATTHeJRvWMYEE-l-51" value="Remove users in the organisation" style="ellipse;whiteSpace=wrap;html=1;" vertex="1" parent="1">
          <mxGeometry x="470" y="700" width="110" height="70" as="geometry" />
        </mxCell>
        <mxCell id="FF_aCATTHeJRvWMYEE-l-52" value="User in the organisation" style="shape=umlActor;verticalLabelPosition=bottom;verticalAlign=top;html=1;outlineConnect=0;" vertex="1" parent="1">
          <mxGeometry x="230" y="800" width="30" height="60" as="geometry" />
        </mxCell>
        <mxCell id="FF_aCATTHeJRvWMYEE-l-53" value="Leave the organisation" style="ellipse;whiteSpace=wrap;html=1;" vertex="1" parent="1">
          <mxGeometry x="470" y="790" width="110" height="70" as="geometry" />
        </mxCell>
        <mxCell id="FF_aCATTHeJRvWMYEE-l-54" value="" style="endArrow=none;html=1;rounded=0;entryX=0;entryY=0.5;entryDx=0;entryDy=0;exitX=1;exitY=0.3333333333333333;exitDx=0;exitDy=0;exitPerimeter=0;" edge="1" parent="1" source="FF_aCATTHeJRvWMYEE-l-30" target="FF_aCATTHeJRvWMYEE-l-10">
          <mxGeometry width="50" height="50" relative="1" as="geometry">
            <mxPoint x="270" y="260" as="sourcePoint" />
            <mxPoint x="480" y="425" as="targetPoint" />
          </mxGeometry>
        </mxCell>
        <mxCell id="FF_aCATTHeJRvWMYEE-l-55" value="" style="endArrow=none;html=1;rounded=0;entryX=0;entryY=0.5;entryDx=0;entryDy=0;exitX=1;exitY=0.3333333333333333;exitDx=0;exitDy=0;exitPerimeter=0;" edge="1" parent="1" source="FF_aCATTHeJRvWMYEE-l-30" target="FF_aCATTHeJRvWMYEE-l-51">
          <mxGeometry width="50" height="50" relative="1" as="geometry">
            <mxPoint x="270" y="260" as="sourcePoint" />
            <mxPoint x="480" y="655" as="targetPoint" />
          </mxGeometry>
        </mxCell>
        <mxCell id="FF_aCATTHeJRvWMYEE-l-56" value="" style="endArrow=none;html=1;rounded=0;entryX=0;entryY=0.5;entryDx=0;entryDy=0;exitX=1;exitY=0.3333333333333333;exitDx=0;exitDy=0;exitPerimeter=0;" edge="1" parent="1" source="FF_aCATTHeJRvWMYEE-l-30" target="FF_aCATTHeJRvWMYEE-l-53">
          <mxGeometry width="50" height="50" relative="1" as="geometry">
            <mxPoint x="270" y="260" as="sourcePoint" />
            <mxPoint x="480" y="805" as="targetPoint" />
          </mxGeometry>
        </mxCell>
        <mxCell id="FF_aCATTHeJRvWMYEE-l-57" value="" style="endArrow=none;html=1;rounded=0;exitX=1;exitY=0.3333333333333333;exitDx=0;exitDy=0;exitPerimeter=0;entryX=0;entryY=0.5;entryDx=0;entryDy=0;" edge="1" parent="1" source="FF_aCATTHeJRvWMYEE-l-52" target="FF_aCATTHeJRvWMYEE-l-53">
          <mxGeometry width="50" height="50" relative="1" as="geometry">
            <mxPoint x="520" y="790" as="sourcePoint" />
            <mxPoint x="570" y="740" as="targetPoint" />
          </mxGeometry>
        </mxCell>
        <mxCell id="FF_aCATTHeJRvWMYEE-l-59" value="Access organisation saved queries" style="ellipse;whiteSpace=wrap;html=1;" vertex="1" parent="1">
          <mxGeometry x="470" y="1010" width="110" height="70" as="geometry" />
        </mxCell>
        <mxCell id="FF_aCATTHeJRvWMYEE-l-60" value="Save queries for the organisation" style="ellipse;whiteSpace=wrap;html=1;" vertex="1" parent="1">
          <mxGeometry x="470" y="900" width="110" height="70" as="geometry" />
        </mxCell>
        <mxCell id="FF_aCATTHeJRvWMYEE-l-61" value="" style="endArrow=none;html=1;rounded=0;exitX=1;exitY=0.3333333333333333;exitDx=0;exitDy=0;exitPerimeter=0;entryX=0;entryY=0.5;entryDx=0;entryDy=0;" edge="1" parent="1" source="FF_aCATTHeJRvWMYEE-l-52" target="FF_aCATTHeJRvWMYEE-l-60">
          <mxGeometry width="50" height="50" relative="1" as="geometry">
            <mxPoint x="270" y="830" as="sourcePoint" />
            <mxPoint x="480" y="835" as="targetPoint" />
          </mxGeometry>
        </mxCell>
        <mxCell id="FF_aCATTHeJRvWMYEE-l-62" value="" style="endArrow=none;html=1;rounded=0;exitX=1;exitY=0.3333333333333333;exitDx=0;exitDy=0;exitPerimeter=0;entryX=0;entryY=0.5;entryDx=0;entryDy=0;" edge="1" parent="1" source="FF_aCATTHeJRvWMYEE-l-52" target="FF_aCATTHeJRvWMYEE-l-59">
          <mxGeometry width="50" height="50" relative="1" as="geometry">
            <mxPoint x="270" y="830" as="sourcePoint" />
            <mxPoint x="480" y="945" as="targetPoint" />
          </mxGeometry>
        </mxCell>
        <mxCell id="FF_aCATTHeJRvWMYEE-l-63" value="" style="endArrow=none;html=1;rounded=0;entryX=0;entryY=0.5;entryDx=0;entryDy=0;exitX=1;exitY=0.3333333333333333;exitDx=0;exitDy=0;exitPerimeter=0;" edge="1" parent="1" source="FF_aCATTHeJRvWMYEE-l-30" target="FF_aCATTHeJRvWMYEE-l-60">
          <mxGeometry width="50" height="50" relative="1" as="geometry">
            <mxPoint x="270" y="530" as="sourcePoint" />
            <mxPoint x="480" y="835" as="targetPoint" />
          </mxGeometry>
        </mxCell>
        <mxCell id="FF_aCATTHeJRvWMYEE-l-64" value="" style="endArrow=none;html=1;rounded=0;entryX=0;entryY=0.5;entryDx=0;entryDy=0;" edge="1" parent="1" target="FF_aCATTHeJRvWMYEE-l-59">
          <mxGeometry width="50" height="50" relative="1" as="geometry">
            <mxPoint x="260" y="520" as="sourcePoint" />
            <mxPoint x="480" y="945" as="targetPoint" />
          </mxGeometry>
        </mxCell>
      </root>
    </mxGraphModel>
  </diagram>
</mxfile>
